<svg width="88" height="32" viewBox="0 0 88 32" fill="none" xmlns="http://www.w3.org/2000/svg">
<path d="M10.6011 0.456055H16.1136L26.3906 31.1461H20.7993L18.2005 23.4952H8.43546L5.87606 31.1461H0.28476L10.6011 0.456055ZM17.2162 19.3023L13.3574 6.63729L9.34109 19.3023H17.2162Z" fill="white"/>
<path d="M32.3707 0.456055L39.3008 11.7811L46.1915 0.456055H52.0978L42.4115 16.0172L51.7828 31.1461H45.8765L39.3008 20.2533L32.6857 31.1461H26.7401L36.1114 16.0172L26.4251 0.456055H32.3707Z" fill="white"/>
<path d="M54.9125 31.1461V0.456055H60.3463V31.1461H54.9125Z" fill="#EC7979"/>
<path d="M87.0874 5.68633H78.1492V31.1461H72.7548V5.68633H63.8166V0.456055H87.0874V5.68633Z" fill="#EC7979"/>
</svg>
